<?xml version="1.0" encoding="UTF-8" standalone="no"?>
<!DOCTYPE svg PUBLIC "-//W3C//DTD SVG 1.1//EN" "http://www.w3.org/Graphics/SVG/1.1/DTD/svg11.dtd">
<svg xmlns="http://www.w3.org/2000/svg" version="1.1" viewBox="0.00 0.00 512.00 512.00">
<g stroke-width="2.00" fill="none" stroke-linecap="butt">
<path stroke="#e90823" vector-effect="non-scaling-stroke" d="
  M 508.42 212.78
  Q 507.64 212.97 507.34 212.66
  Q 449.75 155.00 392.13 97.37
  Q 391.78 97.02 390.90 96.97"
/>
<path stroke="#fb7c97" vector-effect="non-scaling-stroke" d="
  M 390.90 96.97
  Q 390.59 95.48 390.28 95.44"
/>
<path stroke="#b13558" vector-effect="non-scaling-stroke" d="
  M 390.28 95.44
  L 387.27 96.12"
/>
<path stroke="#b83c60" vector-effect="non-scaling-stroke" d="
  M 387.27 96.12
  L 362.52 102.07"
/>
<path stroke="#fb7c97" vector-effect="non-scaling-stroke" d="
  M 362.52 102.07
  L 325.29 110.90"
/>
<path stroke="#b83c60" vector-effect="non-scaling-stroke" d="
  M 325.29 110.90
  Q 313.28 113.70 301.31 116.61
  Q 300.26 116.86 300.00 117.34"
/>
<path stroke="#fb7c97" vector-effect="non-scaling-stroke" d="
  M 300.00 117.34
  L 264.43 125.42"
/>
<path stroke="#b13558" vector-effect="non-scaling-stroke" d="
  M 264.43 125.42
  L 256.71 127.24"
/>
<path stroke="#b83c60" vector-effect="non-scaling-stroke" d="
  M 256.71 127.24
  L 237.28 132.15"
/>
<path stroke="#fb7c97" vector-effect="non-scaling-stroke" d="
  M 237.28 132.15
  L 201.29 140.65"
/>
<path stroke="#b83c60" vector-effect="non-scaling-stroke" d="
  M 201.29 140.65
  L 173.49 147.28"
/>
<path stroke="#fb7c97" vector-effect="non-scaling-stroke" d="
  M 173.49 147.28
  L 138.27 155.65"
/>
<path stroke="#b83c60" vector-effect="non-scaling-stroke" d="
  M 138.27 155.65
  L 110.43 162.32"
/>
<path stroke="#fb7c97" vector-effect="non-scaling-stroke" d="
  M 110.43 162.32
  L 88.66 167.53
  A 0.34 0.34 0.0 0 0 88.41 167.94
  Q 94.10 191.72 99.73 215.49
  Q 100.74 219.74 100.73 224.13
  Q 100.71 248.49 100.80 273.06"
/>
<path stroke="#b83c60" vector-effect="non-scaling-stroke" d="
  M 100.80 273.06
  Q 100.67 273.21 100.74 273.83"
/>
<path stroke="#a02545" vector-effect="non-scaling-stroke" d="
  M 100.74 273.83
  Q 100.64 342.42 100.77 411.11
  Q 100.78 411.59 100.99 411.81
  Q 101.25 412.09 101.70 412.19"
/>
<path stroke="#e90823" vector-effect="non-scaling-stroke" d="
  M 101.70 412.19
  C 101.81 412.63 101.95 413.12 102.29 413.46
  Q 146.41 457.59 190.54 501.71
  Q 190.60 501.77 191.65 502.55
  Q 192.40 503.12 192.21 503.97"
/>
<path stroke="#e58383" vector-effect="non-scaling-stroke" d="
  M 390.90 96.97
  L 402.83 147.03
  Q 403.03 147.85 402.21 148.04
  L 380.48 153.22"
/>
<path stroke="#b4b7c0" vector-effect="non-scaling-stroke" d="
  M 380.48 153.22
  Q 380.23 152.38 380.45 152.90"
/>
<path stroke="#adb0b8" vector-effect="non-scaling-stroke" d="
  M 380.45 152.90
  L 390.28 95.44"
/>
<path stroke="#6a7081" vector-effect="non-scaling-stroke" d="
  M 380.45 152.90
  L 357.40 158.59"
/>
<path stroke="#9b3c44" vector-effect="non-scaling-stroke" d="
  M 357.40 158.59
  Q 355.89 159.46 352.93 159.81"
/>
<path stroke="#adb0b8" vector-effect="non-scaling-stroke" d="
  M 352.93 159.81
  L 362.31 103.16
  A 0.93 0.92 79.2 0 1 362.74 102.52
  L 363.02 102.36"
/>
<path stroke="#6a7081" vector-effect="non-scaling-stroke" d="
  M 363.02 102.36
  L 387.76 96.56
  Q 388.78 96.32 387.93 96.12
  Q 387.69 96.06 387.27 96.12"
/>
<path stroke="#b4b7c0" vector-effect="non-scaling-stroke" d="
  M 363.02 102.36
  Q 363.01 102.17 362.52 102.07"
/>
<path stroke="#8a2c31" vector-effect="non-scaling-stroke" d="
  M 101.70 412.19
  L 255.69 412.01"
/>
<path stroke="#7b1b1d" vector-effect="non-scaling-stroke" d="
  M 255.69 412.01
  L 410.58 411.99
  Q 411.40 411.99 411.39 411.17
  L 411.25 273.49"
/>
<path stroke="#e58383" vector-effect="non-scaling-stroke" d="
  M 411.25 273.49
  L 411.49 220.28
  A 1.04 1.04 0.0 0 0 410.45 219.24
  L 346.48 219.45"
/>
<path stroke="#a2434c" vector-effect="non-scaling-stroke" d="
  M 346.48 219.45
  L 317.77 219.41"
/>
<path stroke="#e58383" vector-effect="non-scaling-stroke" d="
  M 317.77 219.41
  L 281.95 219.46"
/>
<path stroke="#a2434c" vector-effect="non-scaling-stroke" d="
  M 281.95 219.46
  Q 281.80 219.37 281.65 219.29
  Q 281.51 219.22 281.34 219.22
  Q 267.57 219.20 253.80 219.28
  Q 253.50 219.28 253.24 219.41
  Q 252.97 219.53 252.71 219.65"
/>
<path stroke="#e58383" vector-effect="non-scaling-stroke" d="
  M 252.71 219.65
  L 216.98 219.55"
/>
<path stroke="#a2434c" vector-effect="non-scaling-stroke" d="
  M 216.98 219.55
  L 188.31 219.56"
/>
<path stroke="#e58383" vector-effect="non-scaling-stroke" d="
  M 188.31 219.56
  L 152.16 219.63"
/>
<path stroke="#a2434c" vector-effect="non-scaling-stroke" d="
  M 152.16 219.63
  Q 151.57 219.26 150.75 219.25
  Q 141.52 219.09 123.53 219.45"
/>
<path stroke="#e58383" vector-effect="non-scaling-stroke" d="
  M 123.53 219.45
  L 103.89 219.52"
/>
<path stroke="#a2434c" vector-effect="non-scaling-stroke" d="
  M 103.89 219.52
  L 128.62 213.20"
/>
<path stroke="#e58383" vector-effect="non-scaling-stroke" d="
  M 128.62 213.20
  L 163.86 204.79"
/>
<path stroke="#a2434c" vector-effect="non-scaling-stroke" d="
  M 163.86 204.79
  L 191.61 198.14"
/>
<path stroke="#e58383" vector-effect="non-scaling-stroke" d="
  M 191.61 198.14
  L 226.87 189.76"
/>
<path stroke="#a2434c" vector-effect="non-scaling-stroke" d="
  M 226.87 189.76
  L 254.42 183.26"
/>
<path stroke="#e58383" vector-effect="non-scaling-stroke" d="
  M 254.42 183.26
  L 290.34 174.71"
/>
<path stroke="#9b3c44" vector-effect="non-scaling-stroke" d="
  M 290.34 174.71
  Q 291.63 174.67 292.98 174.14"
/>
<path stroke="#a2434c" vector-effect="non-scaling-stroke" d="
  M 292.98 174.14
  L 317.23 168.33"
/>
<path stroke="#e58383" vector-effect="non-scaling-stroke" d="
  M 317.23 168.33
  L 352.93 159.81"
/>
<path stroke="#a2434c" vector-effect="non-scaling-stroke" d="
  M 357.40 158.59
  L 380.48 153.22"
/>
<path stroke="#b4b7c0" vector-effect="non-scaling-stroke" d="
  M 317.23 168.33
  Q 317.00 168.13 317.04 167.95"
/>
<path stroke="#adb0b8" vector-effect="non-scaling-stroke" d="
  M 317.04 167.95
  Q 317.72 167.61 317.96 166.24
  Q 322.61 138.88 327.22 111.48
  A 0.53 0.52 -82.2 0 0 326.76 110.87
  Q 326.13 110.81 325.55 111.30"
/>
<path stroke="#b4b7c0" vector-effect="non-scaling-stroke" d="
  M 325.55 111.30
  Q 325.53 110.82 325.29 110.90"
/>
<path stroke="#6a7081" vector-effect="non-scaling-stroke" d="
  M 325.55 111.30
  L 300.00 117.34"
/>
<path stroke="#6a7081" vector-effect="non-scaling-stroke" d="
  M 317.04 167.95
  Q 305.04 170.75 293.14 173.69
  Q 292.89 173.75 292.98 174.14"
/>
<path stroke="#adb0b8" vector-effect="non-scaling-stroke" d="
  M 290.34 174.71
  C 290.23 173.91 290.05 173.24 290.18 172.43
  Q 294.75 145.35 299.30 118.28
  Q 299.37 117.87 299.68 117.61
  L 300.00 117.34"
/>
<path stroke="#b4b7c0" vector-effect="non-scaling-stroke" d="
  M 254.42 183.26
  L 256.98 170.31"
/>
<path stroke="#adb0b8" vector-effect="non-scaling-stroke" d="
  M 256.98 170.31
  L 264.43 125.42"
/>
<path stroke="#6a7081" vector-effect="non-scaling-stroke" d="
  M 256.98 170.31
  Q 256.42 170.40 256.03 170.11
  Q 255.62 169.81 255.62 169.30
  Q 255.78 149.53 255.75 129.75
  Q 255.75 128.82 256.71 127.24"
/>
<path stroke="#b4b7c0" vector-effect="non-scaling-stroke" d="
  M 226.87 189.76
  L 236.26 133.45
  Q 236.35 132.94 236.74 132.61
  L 237.28 132.15"
/>
<path stroke="#b4b7c0" vector-effect="non-scaling-stroke" d="
  M 191.61 198.14
  L 201.29 140.65"
/>
<path stroke="#b4b7c0" vector-effect="non-scaling-stroke" d="
  M 163.86 204.79
  L 173.49 147.28"
/>
<path stroke="#b4b7c0" vector-effect="non-scaling-stroke" d="
  M 128.62 213.20
  L 138.27 155.65"
/>
<path stroke="#b4b7c0" vector-effect="non-scaling-stroke" d="
  M 103.89 219.52
  Q 102.83 220.21 101.31 219.58
  Q 100.82 219.37 100.91 218.85
  L 110.43 162.32"
/>
<path stroke="#b4b7c0" vector-effect="non-scaling-stroke" d="
  M 123.53 219.45
  L 100.80 273.06"
/>
<path stroke="#b4b7c0" vector-effect="non-scaling-stroke" d="
  M 152.16 219.63
  L 129.34 273.54"
/>
<path stroke="#59606e" vector-effect="non-scaling-stroke" d="
  M 129.34 273.54
  L 100.74 273.83"
/>
<path stroke="#b4b7c0" vector-effect="non-scaling-stroke" d="
  M 216.98 219.55
  L 194.20 273.51"
/>
<path stroke="#59606e" vector-effect="non-scaling-stroke" d="
  M 194.20 273.51
  Q 180.02 274.33 165.43 273.56"
/>
<path stroke="#b4b7c0" vector-effect="non-scaling-stroke" d="
  M 165.43 273.56
  L 188.31 219.56"
/>
<path stroke="#b4b7c0" vector-effect="non-scaling-stroke" d="
  M 281.95 219.46
  L 281.79 219.76"
/>
<path stroke="#6a7081" vector-effect="non-scaling-stroke" d="
  M 281.79 219.76
  L 256.94 219.79
  Q 255.75 219.79 255.75 220.98
  L 255.73 272.26
  Q 255.73 272.76 256.19 272.95
  Q 257.47 273.49 259.27 273.04"
/>
<path stroke="#b4b7c0" vector-effect="non-scaling-stroke" d="
  M 259.27 273.04
  Q 259.03 273.04 259.23 273.52"
/>
<path stroke="#4a4f5a" vector-effect="non-scaling-stroke" d="
  M 259.23 273.52
  Q 257.34 274.00 255.71 273.86"
/>
<path stroke="#59606e" vector-effect="non-scaling-stroke" d="
  M 255.71 273.86
  L 230.20 273.57"
/>
<path stroke="#b4b7c0" vector-effect="non-scaling-stroke" d="
  M 230.20 273.57
  L 252.87 219.88
  Q 252.92 219.75 252.84 219.68
  Q 252.79 219.62 252.71 219.65"
/>
<path stroke="#b4b7c0" vector-effect="non-scaling-stroke" d="
  M 346.48 219.45
  Q 346.32 219.82 346.39 219.88"
/>
<path stroke="#6a7081" vector-effect="non-scaling-stroke" d="
  M 346.39 219.88
  L 317.84 219.86"
/>
<path stroke="#b4b7c0" vector-effect="non-scaling-stroke" d="
  M 317.84 219.86
  Q 317.93 219.84 317.77 219.41"
/>
<path stroke="#8d8f91" vector-effect="non-scaling-stroke" d="
  M 411.25 273.49
  L 323.48 273.50"
/>
<path stroke="#b4b7c0" vector-effect="non-scaling-stroke" d="
  M 323.48 273.50
  Q 323.63 273.37 323.77 273.25"
/>
<path stroke="#adb0b8" vector-effect="non-scaling-stroke" d="
  M 323.77 273.25
  L 346.39 219.88"
/>
<path stroke="#adb0b8" vector-effect="non-scaling-stroke" d="
  M 410.88 220.59
  A 0.69 0.69 0.0 0 0 410.25 219.63
  L 383.06 219.63
  A 0.69 0.69 0.0 0 0 382.42 220.05
  L 360.24 272.47
  A 0.69 0.69 0.0 0 0 360.88 273.43
  L 388.01 273.51
  A 0.69 0.69 0.0 0 0 388.65 273.09
  L 410.88 220.59"
/>
<path stroke="#9ca0a5" vector-effect="non-scaling-stroke" d="
  M 165.43 273.56
  Q 147.71 272.84 129.34 273.54"
/>
<path stroke="#9ca0a5" vector-effect="non-scaling-stroke" d="
  M 230.20 273.57
  L 194.20 273.51"
/>
<path stroke="#adb0b8" vector-effect="non-scaling-stroke" d="
  M 317.84 219.86
  L 295.57 273.13"
/>
<path stroke="#b4b7c0" vector-effect="non-scaling-stroke" d="
  M 295.57 273.13
  Q 295.69 273.23 295.54 273.51"
/>
<path stroke="#8d8f91" vector-effect="non-scaling-stroke" d="
  M 295.54 273.51
  L 259.23 273.52"
/>
<path stroke="#adb0b8" vector-effect="non-scaling-stroke" d="
  M 259.27 273.04
  L 281.79 219.76"
/>
<path stroke="#6a7081" vector-effect="non-scaling-stroke" d="
  M 323.77 273.25
  L 295.57 273.13"
/>
<path stroke="#4a4f5a" vector-effect="non-scaling-stroke" d="
  M 323.48 273.50
  L 295.54 273.51"
/>
<path stroke="#32383f" vector-effect="non-scaling-stroke" d="
  M 255.71 273.86
  L 255.69 412.01"
/>
</g>
<path fill="#ff0037" d="
  M 251.37 0.00
  L 260.74 0.00
  C 380.85 2.81 482.29 86.87 506.62 204.53
  Q 507.47 208.64 508.42 212.78
  Q 507.64 212.97 507.34 212.66
  Q 449.75 155.00 392.13 97.37
  Q 391.78 97.02 390.90 96.97
  Q 390.59 95.48 390.28 95.44
  L 387.27 96.12
  L 362.52 102.07
  L 325.29 110.90
  Q 313.28 113.70 301.31 116.61
  Q 300.26 116.86 300.00 117.34
  L 264.43 125.42
  L 256.71 127.24
  L 237.28 132.15
  L 201.29 140.65
  L 173.49 147.28
  L 138.27 155.65
  L 110.43 162.32
  L 88.66 167.53
  A 0.34 0.34 0.0 0 0 88.41 167.94
  Q 94.10 191.72 99.73 215.49
  Q 100.74 219.74 100.73 224.13
  Q 100.71 248.49 100.80 273.06
  Q 100.67 273.21 100.74 273.83
  Q 100.64 342.42 100.77 411.11
  Q 100.78 411.59 100.99 411.81
  Q 101.25 412.09 101.70 412.19
  C 101.81 412.63 101.95 413.12 102.29 413.46
  Q 146.41 457.59 190.54 501.71
  Q 190.60 501.77 191.65 502.55
  Q 192.40 503.12 192.21 503.97
  C 80.39 474.80 2.72 376.03 0.00 260.61
  L 0.00 250.98
  Q 3.02 154.93 65.86 84.61
  C 111.40 33.65 176.79 3.10 245.51 0.48
  Q 248.48 0.37 251.37 0.00
  Z"
/>
<path fill="#f7f7f7" d="
  M 390.90 96.97
  L 402.83 147.03
  Q 403.03 147.85 402.21 148.04
  L 380.48 153.22
  Q 380.23 152.38 380.45 152.90
  L 390.28 95.44
  Q 390.59 95.48 390.90 96.97
  Z"
/>
<path fill="#636978" d="
  M 390.28 95.44
  L 380.45 152.90
  L 357.40 158.59
  Q 355.89 159.46 352.93 159.81
  L 362.31 103.16
  A 0.93 0.92 79.2 0 1 362.74 102.52
  L 363.02 102.36
  L 387.76 96.56
  Q 388.78 96.32 387.93 96.12
  Q 387.69 96.06 387.27 96.12
  L 390.28 95.44
  Z"
/>
<path fill="#707789" d="
  M 387.27 96.12
  Q 387.69 96.06 387.93 96.12
  Q 388.78 96.32 387.76 96.56
  L 363.02 102.36
  Q 363.01 102.17 362.52 102.07
  L 387.27 96.12
  Z"
/>
<path fill="#d30f0f" d="
  M 390.90 96.97
  Q 391.78 97.02 392.13 97.37
  Q 449.75 155.00 507.34 212.66
  Q 507.64 212.97 508.42 212.78
  Q 511.07 228.91 512.00 245.38
  L 512.00 269.25
  C 511.22 274.91 510.98 281.45 510.39 286.24
  Q 501.73 356.81 459.41 411.66
  C 415.58 468.46 349.96 505.31 278.19 511.08
  Q 273.65 511.44 269.13 512.00
  L 243.50 512.00
  Q 236.63 511.26 229.77 510.63
  Q 210.67 508.88 192.21 503.97
  Q 192.40 503.12 191.65 502.55
  Q 190.60 501.77 190.54 501.71
  Q 146.41 457.59 102.29 413.46
  C 101.95 413.12 101.81 412.63 101.70 412.19
  L 255.69 412.01
  L 410.58 411.99
  Q 411.40 411.99 411.39 411.17
  L 411.25 273.49
  L 411.49 220.28
  A 1.04 1.04 0.0 0 0 410.45 219.24
  L 346.48 219.45
  L 317.77 219.41
  L 281.95 219.46
  Q 281.80 219.37 281.65 219.29
  Q 281.51 219.22 281.34 219.22
  Q 267.57 219.20 253.80 219.28
  Q 253.50 219.28 253.24 219.41
  Q 252.97 219.53 252.71 219.65
  L 216.98 219.55
  L 188.31 219.56
  L 152.16 219.63
  Q 151.57 219.26 150.75 219.25
  Q 141.52 219.09 123.53 219.45
  L 103.89 219.52
  L 128.62 213.20
  L 163.86 204.79
  L 191.61 198.14
  L 226.87 189.76
  L 254.42 183.26
  L 290.34 174.71
  Q 291.63 174.67 292.98 174.14
  L 317.23 168.33
  L 352.93 159.81
  Q 355.89 159.46 357.40 158.59
  L 380.48 153.22
  L 402.21 148.04
  Q 403.03 147.85 402.83 147.03
  L 390.90 96.97
  Z"
/>
<path fill="#f7f7f7" d="
  M 362.52 102.07
  Q 363.01 102.17 363.02 102.36
  L 362.74 102.52
  A 0.93 0.92 79.2 0 0 362.31 103.16
  L 352.93 159.81
  L 317.23 168.33
  Q 317.00 168.13 317.04 167.95
  Q 317.72 167.61 317.96 166.24
  Q 322.61 138.88 327.22 111.48
  A 0.53 0.52 -82.2 0 0 326.76 110.87
  Q 326.13 110.81 325.55 111.30
  Q 325.53 110.82 325.29 110.90
  L 362.52 102.07
  Z"
/>
<path fill="#707789" d="
  M 325.29 110.90
  Q 325.53 110.82 325.55 111.30
  L 300.00 117.34
  Q 300.26 116.86 301.31 116.61
  Q 313.28 113.70 325.29 110.90
  Z"
/>
<path fill="#636978" d="
  M 317.04 167.95
  Q 305.04 170.75 293.14 173.69
  Q 292.89 173.75 292.98 174.14
  Q 291.63 174.67 290.34 174.71
  C 290.23 173.91 290.05 173.24 290.18 172.43
  Q 294.75 145.35 299.30 118.28
  Q 299.37 117.87 299.68 117.61
  L 300.00 117.34
  L 325.55 111.30
  Q 326.13 110.81 326.76 110.87
  A 0.53 0.52 -82.2 0 1 327.22 111.48
  Q 322.61 138.88 317.96 166.24
  Q 317.72 167.61 317.04 167.95
  Z"
/>
<path fill="#f7f7f7" d="
  M 300.00 117.34
  L 299.68 117.61
  Q 299.37 117.87 299.30 118.28
  Q 294.75 145.35 290.18 172.43
  C 290.05 173.24 290.23 173.91 290.34 174.71
  L 254.42 183.26
  L 256.98 170.31
  L 264.43 125.42
  L 300.00 117.34
  Z"
/>
<path fill="#636978" d="
  M 264.43 125.42
  L 256.98 170.31
  Q 256.42 170.40 256.03 170.11
  Q 255.62 169.81 255.62 169.30
  Q 255.78 149.53 255.75 129.75
  Q 255.75 128.82 256.71 127.24
  L 264.43 125.42
  Z"
/>
<path fill="#707789" d="
  M 256.71 127.24
  Q 255.75 128.82 255.75 129.75
  Q 255.78 149.53 255.62 169.30
  Q 255.62 169.81 256.03 170.11
  Q 256.42 170.40 256.98 170.31
  L 254.42 183.26
  L 226.87 189.76
  L 236.26 133.45
  Q 236.35 132.94 236.74 132.61
  L 237.28 132.15
  L 256.71 127.24
  Z"
/>
<path fill="#f7f7f7" d="
  M 237.28 132.15
  L 236.74 132.61
  Q 236.35 132.94 236.26 133.45
  L 226.87 189.76
  L 191.61 198.14
  L 201.29 140.65
  L 237.28 132.15
  Z"
/>
<path fill="#707789" d="
  M 201.29 140.65
  L 191.61 198.14
  L 163.86 204.79
  L 173.49 147.28
  L 201.29 140.65
  Z"
/>
<path fill="#f7f7f7" d="
  M 173.49 147.28
  L 163.86 204.79
  L 128.62 213.20
  L 138.27 155.65
  L 173.49 147.28
  Z"
/>
<path fill="#707789" d="
  M 380.45 152.90
  Q 380.23 152.38 380.48 153.22
  L 357.40 158.59
  L 380.45 152.90
  Z"
/>
<path fill="#707789" d="
  M 138.27 155.65
  L 128.62 213.20
  L 103.89 219.52
  Q 102.83 220.21 101.31 219.58
  Q 100.82 219.37 100.91 218.85
  L 110.43 162.32
  L 138.27 155.65
  Z"
/>
<path fill="#f7f7f7" d="
  M 110.43 162.32
  L 100.91 218.85
  Q 100.82 219.37 101.31 219.58
  Q 102.83 220.21 103.89 219.52
  L 123.53 219.45
  L 100.80 273.06
  Q 100.71 248.49 100.73 224.13
  Q 100.74 219.74 99.73 215.49
  Q 94.10 191.72 88.41 167.94
  A 0.34 0.34 0.0 0 1 88.66 167.53
  L 110.43 162.32
  Z"
/>
<path fill="#707789" d="
  M 317.04 167.95
  Q 317.00 168.13 317.23 168.33
  L 292.98 174.14
  Q 292.89 173.75 293.14 173.69
  Q 305.04 170.75 317.04 167.95
  Z"
/>
<path fill="#707789" d="
  M 152.16 219.63
  L 129.34 273.54
  L 100.74 273.83
  Q 100.67 273.21 100.80 273.06
  L 123.53 219.45
  Q 141.52 219.09 150.75 219.25
  Q 151.57 219.26 152.16 219.63
  Z"
/>
<path fill="#707789" d="
  M 216.98 219.55
  L 194.20 273.51
  Q 180.02 274.33 165.43 273.56
  L 188.31 219.56
  L 216.98 219.55
  Z"
/>
<path fill="#707789" d="
  M 281.95 219.46
  L 281.79 219.76
  L 256.94 219.79
  Q 255.75 219.79 255.75 220.98
  L 255.73 272.26
  Q 255.73 272.76 256.19 272.95
  Q 257.47 273.49 259.27 273.04
  Q 259.03 273.04 259.23 273.52
  Q 257.34 274.00 255.71 273.86
  L 230.20 273.57
  L 252.87 219.88
  Q 252.92 219.75 252.84 219.68
  Q 252.79 219.62 252.71 219.65
  Q 252.97 219.53 253.24 219.41
  Q 253.50 219.28 253.80 219.28
  Q 267.57 219.20 281.34 219.22
  Q 281.51 219.22 281.65 219.29
  Q 281.80 219.37 281.95 219.46
  Z"
/>
<path fill="#707789" d="
  M 346.48 219.45
  Q 346.32 219.82 346.39 219.88
  L 317.84 219.86
  Q 317.93 219.84 317.77 219.41
  L 346.48 219.45
  Z"
/>
<path fill="#f7f7f7" d="
  M 411.25 273.49
  L 323.48 273.50
  Q 323.63 273.37 323.77 273.25
  L 346.39 219.88
  Q 346.32 219.82 346.48 219.45
  L 410.45 219.24
  A 1.04 1.04 0.0 0 1 411.49 220.28
  L 411.25 273.49
  Z
  M 410.88 220.59
  A 0.69 0.69 0.0 0 0 410.25 219.63
  L 383.06 219.63
  A 0.69 0.69 0.0 0 0 382.42 220.05
  L 360.24 272.47
  A 0.69 0.69 0.0 0 0 360.88 273.43
  L 388.01 273.51
  A 0.69 0.69 0.0 0 0 388.65 273.09
  L 410.88 220.59
  Z"
/>
<path fill="#f7f7f7" d="
  M 188.31 219.56
  L 165.43 273.56
  Q 147.71 272.84 129.34 273.54
  L 152.16 219.63
  L 188.31 219.56
  Z"
/>
<path fill="#f7f7f7" d="
  M 252.71 219.65
  Q 252.79 219.62 252.84 219.68
  Q 252.92 219.75 252.87 219.88
  L 230.20 273.57
  L 194.20 273.51
  L 216.98 219.55
  L 252.71 219.65
  Z"
/>
<path fill="#f7f7f7" d="
  M 281.95 219.46
  L 317.77 219.41
  Q 317.93 219.84 317.84 219.86
  L 295.57 273.13
  Q 295.69 273.23 295.54 273.51
  L 259.23 273.52
  Q 259.03 273.04 259.27 273.04
  L 281.79 219.76
  L 281.95 219.46
  Z"
/>
<path fill="#636978" d="
  M 281.79 219.76
  L 259.27 273.04
  Q 257.47 273.49 256.19 272.95
  Q 255.73 272.76 255.73 272.26
  L 255.75 220.98
  Q 255.75 219.79 256.94 219.79
  L 281.79 219.76
  Z"
/>
<path fill="#636978" d="
  M 346.39 219.88
  L 323.77 273.25
  L 295.57 273.13
  L 317.84 219.86
  L 346.39 219.88
  Z"
/>
<path fill="#636978" d="
  M 410.88 220.59
  L 388.65 273.09
  A 0.69 0.69 0.0 0 1 388.01 273.51
  L 360.88 273.43
  A 0.69 0.69 0.0 0 1 360.24 272.47
  L 382.42 220.05
  A 0.69 0.69 0.0 0 1 383.06 219.63
  L 410.25 219.63
  A 0.69 0.69 0.0 0 1 410.88 220.59
  Z"
/>
<path fill="#707789" d="
  M 295.57 273.13
  L 323.77 273.25
  Q 323.63 273.37 323.48 273.50
  L 295.54 273.51
  Q 295.69 273.23 295.57 273.13
  Z"
/>
<path fill="#414952" d="
  M 129.34 273.54
  Q 147.71 272.84 165.43 273.56
  Q 180.02 274.33 194.20 273.51
  L 230.20 273.57
  L 255.71 273.86
  L 255.69 412.01
  L 101.70 412.19
  Q 101.25 412.09 100.99 411.81
  Q 100.78 411.59 100.77 411.11
  Q 100.64 342.42 100.74 273.83
  L 129.34 273.54
  Z"
/>
<path fill="#23272b" d="
  M 259.23 273.52
  L 295.54 273.51
  L 323.48 273.50
  L 411.25 273.49
  L 411.39 411.17
  Q 411.40 411.99 410.58 411.99
  L 255.69 412.01
  L 255.71 273.86
  Q 257.34 274.00 259.23 273.52
  Z"
/>
</svg>
